<mxfile host="app.diagrams.net" modified="2022-03-25T06:55:34.907Z" agent="5.0 (Macintosh; Intel Mac OS X 10_15_7) AppleWebKit/537.36 (KHTML, like Gecko) Chrome/99.0.4844.51 Safari/537.36" etag="nOPttqfxcxnrZq9HEjVk" version="16.5.6" type="github" pages="2">
  <diagram id="C5RBs43oDa-KdzZeNtuy" name="Page-1">
    <mxGraphModel dx="1180" dy="758" grid="1" gridSize="10" guides="1" tooltips="1" connect="1" arrows="1" fold="1" page="1" pageScale="1" pageWidth="827" pageHeight="1169" math="0" shadow="0">
      <root>
        <mxCell id="WIyWlLk6GJQsqaUBKTNV-0" />
        <mxCell id="WIyWlLk6GJQsqaUBKTNV-1" parent="WIyWlLk6GJQsqaUBKTNV-0" />
        <mxCell id="Zvb-G_2RB7lF34UyZwdk-3" value="TestServer::OnUdpRecv" style="swimlane;fontStyle=1;align=center;verticalAlign=top;childLayout=stackLayout;horizontal=1;startSize=26;horizontalStack=0;resizeParent=1;resizeParentMax=0;resizeLast=0;collapsible=1;marginBottom=0;" vertex="1" parent="WIyWlLk6GJQsqaUBKTNV-1">
          <mxGeometry x="20" y="50" width="190" height="60" as="geometry" />
        </mxCell>
        <mxCell id="Zvb-G_2RB7lF34UyZwdk-4" value="ktp_server_-&gt;ProcessUdpPacket" style="text;strokeColor=none;fillColor=none;align=left;verticalAlign=top;spacingLeft=4;spacingRight=4;overflow=hidden;rotatable=0;points=[[0,0.5],[1,0.5]];portConstraint=eastwest;" vertex="1" parent="Zvb-G_2RB7lF34UyZwdk-3">
          <mxGeometry y="26" width="190" height="26" as="geometry" />
        </mxCell>
        <mxCell id="Zvb-G_2RB7lF34UyZwdk-5" value="" style="line;strokeWidth=1;fillColor=none;align=left;verticalAlign=middle;spacingTop=-1;spacingLeft=3;spacingRight=3;rotatable=0;labelPosition=right;points=[];portConstraint=eastwest;" vertex="1" parent="Zvb-G_2RB7lF34UyZwdk-3">
          <mxGeometry y="52" width="190" height="8" as="geometry" />
        </mxCell>
        <mxCell id="Zvb-G_2RB7lF34UyZwdk-8" value="KtpServerImpl::ProcessUdpPacket" style="swimlane;fontStyle=1;align=center;verticalAlign=top;childLayout=stackLayout;horizontal=1;startSize=26;horizontalStack=0;resizeParent=1;resizeParentMax=0;resizeLast=0;collapsible=1;marginBottom=0;" vertex="1" parent="WIyWlLk6GJQsqaUBKTNV-1">
          <mxGeometry x="270" y="120" width="210" height="60" as="geometry" />
        </mxCell>
        <mxCell id="Zvb-G_2RB7lF34UyZwdk-9" value="dispatcher_.ProcessUdpPacket" style="text;strokeColor=none;fillColor=none;align=left;verticalAlign=top;spacingLeft=4;spacingRight=4;overflow=hidden;rotatable=0;points=[[0,0.5],[1,0.5]];portConstraint=eastwest;" vertex="1" parent="Zvb-G_2RB7lF34UyZwdk-8">
          <mxGeometry y="26" width="210" height="26" as="geometry" />
        </mxCell>
        <mxCell id="Zvb-G_2RB7lF34UyZwdk-10" value="" style="line;strokeWidth=1;fillColor=none;align=left;verticalAlign=middle;spacingTop=-1;spacingLeft=3;spacingRight=3;rotatable=0;labelPosition=right;points=[];portConstraint=eastwest;" vertex="1" parent="Zvb-G_2RB7lF34UyZwdk-8">
          <mxGeometry y="52" width="210" height="8" as="geometry" />
        </mxCell>
        <mxCell id="Zvb-G_2RB7lF34UyZwdk-11" style="edgeStyle=orthogonalEdgeStyle;rounded=0;orthogonalLoop=1;jettySize=auto;html=1;exitX=1;exitY=0.5;exitDx=0;exitDy=0;entryX=0;entryY=0.25;entryDx=0;entryDy=0;" edge="1" parent="WIyWlLk6GJQsqaUBKTNV-1" source="Zvb-G_2RB7lF34UyZwdk-4" target="Zvb-G_2RB7lF34UyZwdk-8">
          <mxGeometry relative="1" as="geometry" />
        </mxCell>
        <mxCell id="Zvb-G_2RB7lF34UyZwdk-12" value="KtpDispatcher::ProcessUdpPacket" style="swimlane;fontStyle=1;align=center;verticalAlign=top;childLayout=stackLayout;horizontal=1;startSize=26;horizontalStack=0;resizeParent=1;resizeParentMax=0;resizeLast=0;collapsible=1;marginBottom=0;" vertex="1" parent="WIyWlLk6GJQsqaUBKTNV-1">
          <mxGeometry x="540" y="129" width="210" height="60" as="geometry" />
        </mxCell>
        <mxCell id="Zvb-G_2RB7lF34UyZwdk-13" value="framer_.ProcessDataPacket(packet);" style="text;strokeColor=none;fillColor=none;align=left;verticalAlign=top;spacingLeft=4;spacingRight=4;overflow=hidden;rotatable=0;points=[[0,0.5],[1,0.5]];portConstraint=eastwest;" vertex="1" parent="Zvb-G_2RB7lF34UyZwdk-12">
          <mxGeometry y="26" width="210" height="26" as="geometry" />
        </mxCell>
        <mxCell id="Zvb-G_2RB7lF34UyZwdk-14" value="" style="line;strokeWidth=1;fillColor=none;align=left;verticalAlign=middle;spacingTop=-1;spacingLeft=3;spacingRight=3;rotatable=0;labelPosition=right;points=[];portConstraint=eastwest;" vertex="1" parent="Zvb-G_2RB7lF34UyZwdk-12">
          <mxGeometry y="52" width="210" height="8" as="geometry" />
        </mxCell>
        <mxCell id="Zvb-G_2RB7lF34UyZwdk-15" style="edgeStyle=orthogonalEdgeStyle;rounded=0;orthogonalLoop=1;jettySize=auto;html=1;exitX=1;exitY=0.5;exitDx=0;exitDy=0;entryX=0;entryY=0.25;entryDx=0;entryDy=0;" edge="1" parent="WIyWlLk6GJQsqaUBKTNV-1" source="Zvb-G_2RB7lF34UyZwdk-9" target="Zvb-G_2RB7lF34UyZwdk-12">
          <mxGeometry relative="1" as="geometry" />
        </mxCell>
        <mxCell id="Zvb-G_2RB7lF34UyZwdk-16" value="KtpFramer::ProcessDataPacket" style="swimlane;fontStyle=1;align=center;verticalAlign=top;childLayout=stackLayout;horizontal=1;startSize=26;horizontalStack=0;resizeParent=1;resizeParentMax=0;resizeLast=0;collapsible=1;marginBottom=0;" vertex="1" parent="WIyWlLk6GJQsqaUBKTNV-1">
          <mxGeometry x="30" y="240" width="210" height="60" as="geometry" />
        </mxCell>
        <mxCell id="Zvb-G_2RB7lF34UyZwdk-17" value="ProcessFramesByType(&amp;reader, packet);" style="text;strokeColor=none;fillColor=none;align=left;verticalAlign=top;spacingLeft=4;spacingRight=4;overflow=hidden;rotatable=0;points=[[0,0.5],[1,0.5]];portConstraint=eastwest;" vertex="1" parent="Zvb-G_2RB7lF34UyZwdk-16">
          <mxGeometry y="26" width="210" height="26" as="geometry" />
        </mxCell>
        <mxCell id="Zvb-G_2RB7lF34UyZwdk-18" value="" style="line;strokeWidth=1;fillColor=none;align=left;verticalAlign=middle;spacingTop=-1;spacingLeft=3;spacingRight=3;rotatable=0;labelPosition=right;points=[];portConstraint=eastwest;" vertex="1" parent="Zvb-G_2RB7lF34UyZwdk-16">
          <mxGeometry y="52" width="210" height="8" as="geometry" />
        </mxCell>
        <mxCell id="Zvb-G_2RB7lF34UyZwdk-19" style="edgeStyle=orthogonalEdgeStyle;rounded=0;orthogonalLoop=1;jettySize=auto;html=1;exitX=1;exitY=0.5;exitDx=0;exitDy=0;entryX=0;entryY=0;entryDx=0;entryDy=0;" edge="1" parent="WIyWlLk6GJQsqaUBKTNV-1" source="Zvb-G_2RB7lF34UyZwdk-13" target="Zvb-G_2RB7lF34UyZwdk-16">
          <mxGeometry relative="1" as="geometry" />
        </mxCell>
        <mxCell id="Zvb-G_2RB7lF34UyZwdk-20" value="ProcessFramesByType" style="swimlane;fontStyle=1;align=center;verticalAlign=top;childLayout=stackLayout;horizontal=1;startSize=26;horizontalStack=0;resizeParent=1;resizeParentMax=0;resizeLast=0;collapsible=1;marginBottom=0;" vertex="1" parent="WIyWlLk6GJQsqaUBKTNV-1">
          <mxGeometry x="308" y="240" width="210" height="60" as="geometry" />
        </mxCell>
        <mxCell id="Zvb-G_2RB7lF34UyZwdk-21" value="ProcessSessionSynFrame" style="text;strokeColor=none;fillColor=none;align=left;verticalAlign=top;spacingLeft=4;spacingRight=4;overflow=hidden;rotatable=0;points=[[0,0.5],[1,0.5]];portConstraint=eastwest;" vertex="1" parent="Zvb-G_2RB7lF34UyZwdk-20">
          <mxGeometry y="26" width="210" height="26" as="geometry" />
        </mxCell>
        <mxCell id="Zvb-G_2RB7lF34UyZwdk-22" value="" style="line;strokeWidth=1;fillColor=none;align=left;verticalAlign=middle;spacingTop=-1;spacingLeft=3;spacingRight=3;rotatable=0;labelPosition=right;points=[];portConstraint=eastwest;" vertex="1" parent="Zvb-G_2RB7lF34UyZwdk-20">
          <mxGeometry y="52" width="210" height="8" as="geometry" />
        </mxCell>
        <mxCell id="Zvb-G_2RB7lF34UyZwdk-23" style="edgeStyle=orthogonalEdgeStyle;rounded=0;orthogonalLoop=1;jettySize=auto;html=1;exitX=1;exitY=0.5;exitDx=0;exitDy=0;entryX=0;entryY=0.25;entryDx=0;entryDy=0;" edge="1" parent="WIyWlLk6GJQsqaUBKTNV-1" source="Zvb-G_2RB7lF34UyZwdk-17" target="Zvb-G_2RB7lF34UyZwdk-20">
          <mxGeometry relative="1" as="geometry" />
        </mxCell>
        <mxCell id="_iYWtfZNIUwV6yEUmiT8-0" value="ProcessSessionSynFrame" style="swimlane;fontStyle=1;align=center;verticalAlign=top;childLayout=stackLayout;horizontal=1;startSize=26;horizontalStack=0;resizeParent=1;resizeParentMax=0;resizeLast=0;collapsible=1;marginBottom=0;" vertex="1" parent="WIyWlLk6GJQsqaUBKTNV-1">
          <mxGeometry x="580" y="240" width="210" height="60" as="geometry" />
        </mxCell>
        <mxCell id="_iYWtfZNIUwV6yEUmiT8-1" value="ProcessFramesByType(&amp;reader, packet);" style="text;strokeColor=none;fillColor=none;align=left;verticalAlign=top;spacingLeft=4;spacingRight=4;overflow=hidden;rotatable=0;points=[[0,0.5],[1,0.5]];portConstraint=eastwest;" vertex="1" parent="_iYWtfZNIUwV6yEUmiT8-0">
          <mxGeometry y="26" width="210" height="26" as="geometry" />
        </mxCell>
        <mxCell id="_iYWtfZNIUwV6yEUmiT8-2" value="" style="line;strokeWidth=1;fillColor=none;align=left;verticalAlign=middle;spacingTop=-1;spacingLeft=3;spacingRight=3;rotatable=0;labelPosition=right;points=[];portConstraint=eastwest;" vertex="1" parent="_iYWtfZNIUwV6yEUmiT8-0">
          <mxGeometry y="52" width="210" height="8" as="geometry" />
        </mxCell>
        <mxCell id="_iYWtfZNIUwV6yEUmiT8-3" style="edgeStyle=orthogonalEdgeStyle;rounded=0;orthogonalLoop=1;jettySize=auto;html=1;exitX=1;exitY=0.5;exitDx=0;exitDy=0;entryX=0;entryY=0.25;entryDx=0;entryDy=0;fontColor=#FFFFFF;" edge="1" parent="WIyWlLk6GJQsqaUBKTNV-1" source="Zvb-G_2RB7lF34UyZwdk-21" target="_iYWtfZNIUwV6yEUmiT8-0">
          <mxGeometry relative="1" as="geometry" />
        </mxCell>
      </root>
    </mxGraphModel>
  </diagram>
  <diagram id="SkF46f49c2pdNxVRJJfA" name="第 2 页">
    <mxGraphModel dx="1298" dy="834" grid="1" gridSize="10" guides="1" tooltips="1" connect="1" arrows="1" fold="1" page="1" pageScale="1" pageWidth="827" pageHeight="1169" math="0" shadow="0">
      <root>
        <mxCell id="ltdCQtRovc_R7p-a1V0x-0" />
        <mxCell id="ltdCQtRovc_R7p-a1V0x-1" parent="ltdCQtRovc_R7p-a1V0x-0" />
        <mxCell id="ltdCQtRovc_R7p-a1V0x-3" value="TestServer" style="swimlane;fontStyle=1;align=center;verticalAlign=top;childLayout=stackLayout;horizontal=1;startSize=26;horizontalStack=0;resizeParent=1;resizeParentMax=0;resizeLast=0;collapsible=1;marginBottom=0;" vertex="1" parent="ltdCQtRovc_R7p-a1V0x-1">
          <mxGeometry x="140" y="60" width="160" height="86" as="geometry" />
        </mxCell>
        <mxCell id="ltdCQtRovc_R7p-a1V0x-4" value="+ field: type" style="text;strokeColor=none;fillColor=none;align=left;verticalAlign=top;spacingLeft=4;spacingRight=4;overflow=hidden;rotatable=0;points=[[0,0.5],[1,0.5]];portConstraint=eastwest;" vertex="1" parent="ltdCQtRovc_R7p-a1V0x-3">
          <mxGeometry y="26" width="160" height="26" as="geometry" />
        </mxCell>
        <mxCell id="ltdCQtRovc_R7p-a1V0x-5" value="" style="line;strokeWidth=1;fillColor=none;align=left;verticalAlign=middle;spacingTop=-1;spacingLeft=3;spacingRight=3;rotatable=0;labelPosition=right;points=[];portConstraint=eastwest;" vertex="1" parent="ltdCQtRovc_R7p-a1V0x-3">
          <mxGeometry y="52" width="160" height="8" as="geometry" />
        </mxCell>
        <mxCell id="ltdCQtRovc_R7p-a1V0x-6" value="+ method(type): type" style="text;strokeColor=none;fillColor=none;align=left;verticalAlign=top;spacingLeft=4;spacingRight=4;overflow=hidden;rotatable=0;points=[[0,0.5],[1,0.5]];portConstraint=eastwest;" vertex="1" parent="ltdCQtRovc_R7p-a1V0x-3">
          <mxGeometry y="60" width="160" height="26" as="geometry" />
        </mxCell>
        <mxCell id="ltdCQtRovc_R7p-a1V0x-7" value="" style="endArrow=block;dashed=1;endFill=0;endSize=12;html=1;rounded=0;" edge="1" parent="ltdCQtRovc_R7p-a1V0x-1">
          <mxGeometry width="160" relative="1" as="geometry">
            <mxPoint x="300" y="70" as="sourcePoint" />
            <mxPoint x="460" y="70" as="targetPoint" />
          </mxGeometry>
        </mxCell>
        <mxCell id="ltdCQtRovc_R7p-a1V0x-12" value="«interface»&lt;br&gt;&lt;span style=&quot;font-weight: 700&quot;&gt;KtpServerVisitorInterface&lt;/span&gt;" style="html=1;" vertex="1" parent="ltdCQtRovc_R7p-a1V0x-1">
          <mxGeometry x="460" y="50" width="180" height="50" as="geometry" />
        </mxCell>
        <mxCell id="ltdCQtRovc_R7p-a1V0x-14" value="Use" style="endArrow=open;endSize=12;dashed=1;html=1;rounded=0;" edge="1" parent="ltdCQtRovc_R7p-a1V0x-1">
          <mxGeometry width="160" relative="1" as="geometry">
            <mxPoint x="300" y="140" as="sourcePoint" />
            <mxPoint x="420" y="140" as="targetPoint" />
          </mxGeometry>
        </mxCell>
        <mxCell id="ltdCQtRovc_R7p-a1V0x-15" value="KtpServer" style="swimlane;fontStyle=1;align=center;verticalAlign=top;childLayout=stackLayout;horizontal=1;startSize=26;horizontalStack=0;resizeParent=1;resizeParentMax=0;resizeLast=0;collapsible=1;marginBottom=0;" vertex="1" parent="ltdCQtRovc_R7p-a1V0x-1">
          <mxGeometry x="420" y="130" width="160" height="86" as="geometry" />
        </mxCell>
        <mxCell id="ltdCQtRovc_R7p-a1V0x-16" value="+ field: type" style="text;strokeColor=none;fillColor=none;align=left;verticalAlign=top;spacingLeft=4;spacingRight=4;overflow=hidden;rotatable=0;points=[[0,0.5],[1,0.5]];portConstraint=eastwest;" vertex="1" parent="ltdCQtRovc_R7p-a1V0x-15">
          <mxGeometry y="26" width="160" height="26" as="geometry" />
        </mxCell>
        <mxCell id="ltdCQtRovc_R7p-a1V0x-17" value="" style="line;strokeWidth=1;fillColor=none;align=left;verticalAlign=middle;spacingTop=-1;spacingLeft=3;spacingRight=3;rotatable=0;labelPosition=right;points=[];portConstraint=eastwest;" vertex="1" parent="ltdCQtRovc_R7p-a1V0x-15">
          <mxGeometry y="52" width="160" height="8" as="geometry" />
        </mxCell>
        <mxCell id="ltdCQtRovc_R7p-a1V0x-18" value="+ method(type): type" style="text;strokeColor=none;fillColor=none;align=left;verticalAlign=top;spacingLeft=4;spacingRight=4;overflow=hidden;rotatable=0;points=[[0,0.5],[1,0.5]];portConstraint=eastwest;" vertex="1" parent="ltdCQtRovc_R7p-a1V0x-15">
          <mxGeometry y="60" width="160" height="26" as="geometry" />
        </mxCell>
        <mxCell id="ltdCQtRovc_R7p-a1V0x-19" value="KtpServerImpl" style="swimlane;fontStyle=1;align=center;verticalAlign=top;childLayout=stackLayout;horizontal=1;startSize=26;horizontalStack=0;resizeParent=1;resizeParentMax=0;resizeLast=0;collapsible=1;marginBottom=0;" vertex="1" parent="ltdCQtRovc_R7p-a1V0x-1">
          <mxGeometry x="80" y="330" width="160" height="86" as="geometry" />
        </mxCell>
        <mxCell id="ltdCQtRovc_R7p-a1V0x-20" value="+ field: type" style="text;strokeColor=none;fillColor=none;align=left;verticalAlign=top;spacingLeft=4;spacingRight=4;overflow=hidden;rotatable=0;points=[[0,0.5],[1,0.5]];portConstraint=eastwest;" vertex="1" parent="ltdCQtRovc_R7p-a1V0x-19">
          <mxGeometry y="26" width="160" height="26" as="geometry" />
        </mxCell>
        <mxCell id="ltdCQtRovc_R7p-a1V0x-21" value="" style="line;strokeWidth=1;fillColor=none;align=left;verticalAlign=middle;spacingTop=-1;spacingLeft=3;spacingRight=3;rotatable=0;labelPosition=right;points=[];portConstraint=eastwest;" vertex="1" parent="ltdCQtRovc_R7p-a1V0x-19">
          <mxGeometry y="52" width="160" height="8" as="geometry" />
        </mxCell>
        <mxCell id="ltdCQtRovc_R7p-a1V0x-22" value="+ method(type): type" style="text;strokeColor=none;fillColor=none;align=left;verticalAlign=top;spacingLeft=4;spacingRight=4;overflow=hidden;rotatable=0;points=[[0,0.5],[1,0.5]];portConstraint=eastwest;" vertex="1" parent="ltdCQtRovc_R7p-a1V0x-19">
          <mxGeometry y="60" width="160" height="26" as="geometry" />
        </mxCell>
        <mxCell id="ltdCQtRovc_R7p-a1V0x-23" value="Extends" style="endArrow=block;endSize=16;endFill=0;html=1;rounded=0;entryX=0;entryY=0.5;entryDx=0;entryDy=0;exitX=0.5;exitY=0;exitDx=0;exitDy=0;" edge="1" parent="ltdCQtRovc_R7p-a1V0x-1" source="ltdCQtRovc_R7p-a1V0x-19" target="ltdCQtRovc_R7p-a1V0x-18">
          <mxGeometry width="160" relative="1" as="geometry">
            <mxPoint x="410" y="310" as="sourcePoint" />
            <mxPoint x="460" y="270" as="targetPoint" />
          </mxGeometry>
        </mxCell>
        <mxCell id="ltdCQtRovc_R7p-a1V0x-24" value="«interface»&lt;br&gt;&lt;b&gt;KtpDispatcherVisitorInterface&lt;/b&gt;" style="html=1;" vertex="1" parent="ltdCQtRovc_R7p-a1V0x-1">
          <mxGeometry x="400" y="290" width="180" height="50" as="geometry" />
        </mxCell>
        <mxCell id="ltdCQtRovc_R7p-a1V0x-25" value="" style="endArrow=block;dashed=1;endFill=0;endSize=12;html=1;rounded=0;exitX=1.019;exitY=0.169;exitDx=0;exitDy=0;exitPerimeter=0;entryX=0;entryY=0.5;entryDx=0;entryDy=0;" edge="1" parent="ltdCQtRovc_R7p-a1V0x-1" source="ltdCQtRovc_R7p-a1V0x-19" target="ltdCQtRovc_R7p-a1V0x-24">
          <mxGeometry width="160" relative="1" as="geometry">
            <mxPoint x="220" y="354.5" as="sourcePoint" />
            <mxPoint x="380" y="354.5" as="targetPoint" />
          </mxGeometry>
        </mxCell>
        <mxCell id="ltdCQtRovc_R7p-a1V0x-26" value="KtpDispatcher" style="swimlane;fontStyle=1;align=center;verticalAlign=top;childLayout=stackLayout;horizontal=1;startSize=26;horizontalStack=0;resizeParent=1;resizeParentMax=0;resizeLast=0;collapsible=1;marginBottom=0;" vertex="1" parent="ltdCQtRovc_R7p-a1V0x-1">
          <mxGeometry x="380" y="420" width="160" height="86" as="geometry" />
        </mxCell>
        <mxCell id="ltdCQtRovc_R7p-a1V0x-27" value="+ field: type" style="text;strokeColor=none;fillColor=none;align=left;verticalAlign=top;spacingLeft=4;spacingRight=4;overflow=hidden;rotatable=0;points=[[0,0.5],[1,0.5]];portConstraint=eastwest;" vertex="1" parent="ltdCQtRovc_R7p-a1V0x-26">
          <mxGeometry y="26" width="160" height="26" as="geometry" />
        </mxCell>
        <mxCell id="ltdCQtRovc_R7p-a1V0x-28" value="" style="line;strokeWidth=1;fillColor=none;align=left;verticalAlign=middle;spacingTop=-1;spacingLeft=3;spacingRight=3;rotatable=0;labelPosition=right;points=[];portConstraint=eastwest;" vertex="1" parent="ltdCQtRovc_R7p-a1V0x-26">
          <mxGeometry y="52" width="160" height="8" as="geometry" />
        </mxCell>
        <mxCell id="ltdCQtRovc_R7p-a1V0x-29" value="+ method(type): type" style="text;strokeColor=none;fillColor=none;align=left;verticalAlign=top;spacingLeft=4;spacingRight=4;overflow=hidden;rotatable=0;points=[[0,0.5],[1,0.5]];portConstraint=eastwest;" vertex="1" parent="ltdCQtRovc_R7p-a1V0x-26">
          <mxGeometry y="60" width="160" height="26" as="geometry" />
        </mxCell>
        <mxCell id="ltdCQtRovc_R7p-a1V0x-30" value="Use" style="endArrow=open;endSize=12;dashed=1;html=1;rounded=0;entryX=0;entryY=0.25;entryDx=0;entryDy=0;" edge="1" parent="ltdCQtRovc_R7p-a1V0x-1" target="ltdCQtRovc_R7p-a1V0x-26">
          <mxGeometry width="160" relative="1" as="geometry">
            <mxPoint x="240" y="410" as="sourcePoint" />
            <mxPoint x="330" y="490" as="targetPoint" />
          </mxGeometry>
        </mxCell>
        <mxCell id="ltdCQtRovc_R7p-a1V0x-31" value="KtpFramer" style="swimlane;fontStyle=1;align=center;verticalAlign=top;childLayout=stackLayout;horizontal=1;startSize=26;horizontalStack=0;resizeParent=1;resizeParentMax=0;resizeLast=0;collapsible=1;marginBottom=0;" vertex="1" parent="ltdCQtRovc_R7p-a1V0x-1">
          <mxGeometry x="80" y="580" width="160" height="86" as="geometry" />
        </mxCell>
        <mxCell id="ltdCQtRovc_R7p-a1V0x-32" value="+ field: type" style="text;strokeColor=none;fillColor=none;align=left;verticalAlign=top;spacingLeft=4;spacingRight=4;overflow=hidden;rotatable=0;points=[[0,0.5],[1,0.5]];portConstraint=eastwest;" vertex="1" parent="ltdCQtRovc_R7p-a1V0x-31">
          <mxGeometry y="26" width="160" height="26" as="geometry" />
        </mxCell>
        <mxCell id="ltdCQtRovc_R7p-a1V0x-33" value="" style="line;strokeWidth=1;fillColor=none;align=left;verticalAlign=middle;spacingTop=-1;spacingLeft=3;spacingRight=3;rotatable=0;labelPosition=right;points=[];portConstraint=eastwest;" vertex="1" parent="ltdCQtRovc_R7p-a1V0x-31">
          <mxGeometry y="52" width="160" height="8" as="geometry" />
        </mxCell>
        <mxCell id="ltdCQtRovc_R7p-a1V0x-34" value="+ method(type): type" style="text;strokeColor=none;fillColor=none;align=left;verticalAlign=top;spacingLeft=4;spacingRight=4;overflow=hidden;rotatable=0;points=[[0,0.5],[1,0.5]];portConstraint=eastwest;" vertex="1" parent="ltdCQtRovc_R7p-a1V0x-31">
          <mxGeometry y="60" width="160" height="26" as="geometry" />
        </mxCell>
        <mxCell id="ltdCQtRovc_R7p-a1V0x-36" value="Use" style="endArrow=open;endSize=12;dashed=1;html=1;rounded=0;entryX=0.5;entryY=0;entryDx=0;entryDy=0;exitX=0;exitY=0.5;exitDx=0;exitDy=0;" edge="1" parent="ltdCQtRovc_R7p-a1V0x-1" source="ltdCQtRovc_R7p-a1V0x-29" target="ltdCQtRovc_R7p-a1V0x-31">
          <mxGeometry width="160" relative="1" as="geometry">
            <mxPoint x="240" y="410" as="sourcePoint" />
            <mxPoint x="340" y="570" as="targetPoint" />
          </mxGeometry>
        </mxCell>
        <mxCell id="ltdCQtRovc_R7p-a1V0x-37" value="«interface»&lt;br&gt;&lt;b&gt;KtpFramerVisitorInterface&lt;/b&gt;" style="html=1;" vertex="1" parent="ltdCQtRovc_R7p-a1V0x-1">
          <mxGeometry x="370" y="610" width="180" height="50" as="geometry" />
        </mxCell>
        <mxCell id="ltdCQtRovc_R7p-a1V0x-40" value="Use" style="endArrow=open;endSize=12;dashed=1;html=1;rounded=0;entryX=0;entryY=0.5;entryDx=0;entryDy=0;exitX=1;exitY=0.25;exitDx=0;exitDy=0;" edge="1" parent="ltdCQtRovc_R7p-a1V0x-1" source="ltdCQtRovc_R7p-a1V0x-31" target="ltdCQtRovc_R7p-a1V0x-37">
          <mxGeometry width="160" relative="1" as="geometry">
            <mxPoint x="240" y="410" as="sourcePoint" />
            <mxPoint x="340" y="570" as="targetPoint" />
          </mxGeometry>
        </mxCell>
        <mxCell id="ltdCQtRovc_R7p-a1V0x-41" value="" style="endArrow=block;dashed=1;endFill=0;endSize=12;html=1;rounded=0;exitX=0.506;exitY=0.962;exitDx=0;exitDy=0;exitPerimeter=0;entryX=0.5;entryY=0;entryDx=0;entryDy=0;" edge="1" parent="ltdCQtRovc_R7p-a1V0x-1" source="ltdCQtRovc_R7p-a1V0x-29" target="ltdCQtRovc_R7p-a1V0x-37">
          <mxGeometry width="160" relative="1" as="geometry">
            <mxPoint x="220" y="354.5" as="sourcePoint" />
            <mxPoint x="380" y="354.5" as="targetPoint" />
          </mxGeometry>
        </mxCell>
      </root>
    </mxGraphModel>
  </diagram>
</mxfile>
